<svg width="48" height="48" viewBox="0 0 48 48" xmlns="http://www.w3.org/2000/svg"><path d="M46.679 46.679c-1.761 1.761-4.615 1.761-6.376 0l-7.956-7.956c-3.271 2.098-7.137 3.348-11.312 3.348-11.617 0-21.036-9.418-21.036-21.036 0-11.618 9.419-21.036 21.036-21.036 11.619 0 21.036 9.417 21.036 21.036 0 4.173-1.252 8.041-3.349 11.313l7.956 7.956c1.761 1.761 1.761 4.613 0 6.374l.001.001zm-25.643-40.669c-8.298 0-15.026 6.726-15.026 15.026s6.728 15.026 15.026 15.026c8.299 0 15.026-6.726 15.026-15.026s-6.726-15.026-15.026-15.026z" fill="#999"/></svg>
